<?xml version="1.0" encoding="UTF-8"?>
<svg width="640px" height="448px" viewBox="0 0 640 448" version="1.1" xmlns="http://www.w3.org/2000/svg" xmlns:xlink="http://www.w3.org/1999/xlink">
    <title>Shape</title>
    <g id="Page-1" stroke="none" stroke-width="1" fill="none" fill-rule="evenodd">
        <g id="favicon" transform="translate(0.003946, 0.020802)" fill="#666666" fill-rule="nonzero">
            <path d="M638.586054,336.199198 L605.216054,124.609198 C596.356054,74.3491979 556.816054,33.8391979 504.556054,21.4791979 L504.486054,21.4791979 C383.153103,-7.15973262 256.819004,-7.15973262 135.486054,21.4791979 C83.1660537,33.8391979 43.6360537,74.3391979 34.7760537,124.609198 L1.40605366,336.199198 C-8.90394634,394.709198 38.7960537,447.979198 101.506054,447.979198 C151.176054,447.979198 195.276054,417.909198 210.986054,373.339198 L218.506054,351.979198 L421.506054,351.979198 L428.996054,373.339198 C444.716054,417.909198 488.816054,447.979198 538.486054,447.979198 C601.196054,447.979198 648.896054,394.709198 638.586054,336.199198 Z M593.476054,391.079198 C580.196054,406.899198 560.146054,415.979198 538.476054,415.979198 C502.276054,415.979198 470.406054,394.569198 459.186054,362.709198 L451.656054,341.349198 L444.136054,319.979198 L195.856054,319.979198 L188.326054,341.349198 L180.796054,362.709198 C169.576054,394.569198 137.706054,415.979198 101.506054,415.979198 C79.8460537,415.979198 59.7960537,406.899198 46.5060537,391.079198 C34.6913317,377.343186 29.724953,358.999567 32.9960537,341.179198 L66.2760537,130.179198 C72.9360537,92.4791979 102.996054,62.0391979 142.806054,52.6091979 C259.330657,25.0958286 380.66145,25.0958286 497.186054,52.6091979 C537.026054,62.0291979 567.056054,92.4691979 573.606054,129.609198 L607.076054,341.759198 C610.186054,359.399198 605.356054,376.919198 593.476054,391.079198 L593.476054,391.079198 Z M254.176054,172.339198 L211.636054,172.339198 L211.636054,129.799198 C211.614133,124.384867 207.230384,120.001118 201.816054,119.979198 L182.176054,119.979198 C176.761723,120.001118 172.377974,124.384867 172.356054,129.799198 L172.356054,172.339198 L129.816054,172.339198 C124.401723,172.361118 120.017974,176.744867 119.996054,182.159198 L119.996054,201.799198 C120.017974,207.213528 124.401723,211.597277 129.816054,211.619198 L172.356054,211.619198 L172.356054,254.159198 C172.377974,259.573528 176.761723,263.957277 182.176054,263.979198 L201.816054,263.979198 C207.230384,263.957277 211.614133,259.573528 211.636054,254.159198 L211.636054,211.619198 L254.176054,211.619198 C259.590384,211.597277 263.974133,207.213528 263.996054,201.799198 L263.996054,182.159198 C263.974133,176.744867 259.590384,172.361118 254.176054,172.339198 L254.176054,172.339198 Z M415.996054,191.979198 C398.322942,191.979198 383.996054,206.306086 383.996054,223.979198 C383.996054,241.65231 398.322942,255.979198 415.996054,255.979198 C433.669166,255.979198 447.996054,241.65231 447.996054,223.979198 C447.996054,206.306086 433.669166,191.979198 415.996054,191.979198 Z M479.996054,127.979198 C462.322942,127.979198 447.996054,142.306086 447.996054,159.979198 C447.996054,177.65231 462.322942,191.979198 479.996054,191.979198 C497.669166,191.979198 511.996054,177.65231 511.996054,159.979198 C511.996054,142.306086 497.669166,127.979198 479.996054,127.979198 Z" id="Shape"></path>
        </g>
    </g>
</svg>